PathFileType	4	(X/Y/Z)	5_coords_data.trc
DataRate	CameraRate	NumFrames	NumMarkers	Units	OrigDataRate	OrigDataStartFrame	OrigNumFrames
30.0	30.0	7	21	m	30.0	10	67
Frame#	Time	THUMB_TIP	THUMB_IP	THUMB_MCP	THUMB_CMC	INDEX_TIP	INDEX_DIP	INDEX_PIP	INDEX_MCP	MIDDLE_TIP	MIDDLE_DIP	MIDDLE_PIP	MIDDLE_MCP	RING_TIP	RING_DIP	RING_PIP	RING_MCP	PINKY_TIP	PINKY_DIP	PINKY_PIP	PINKY_MCP	WRIST
X1	Y1	Z1	X2	Y2	Z2	X3	Y3	Z3	X4	Y4	Z4	X5	Y5	Z5	X6	Y6	Z6	X7	Y7	Z7	X8	Y8	Z8	X9	Y9	Z9	X10	Y10	Z10	X11	Y11	Z11	X12	Y12	Z12	X13	Y13	Z13	X14	Y14	Z14	X15	Y15	Z15	X16	Y16	Z16	X17	Y17	Z17	X18	Y18	Z18	X19	Y19	Z19	X20	Y20	Z20	X21	Y21	Z21
8	0.2999999999999987	0.5037811113465845	-0.029308729429570746	-0.1635599614753543	0.4948854549767602	-0.029365566788850384	-0.14237354914894582	0.4700651477730067	-0.027872719674274293	-0.12365073531651649	0.4699452961092456	-0.028477911121097987	-0.07904681868477453	0.5720894537531739	0.023000083169150476	-0.1632724291726827	0.5562014879847682	0.023555798209503265	-0.15459696235320297	0.5343601124126687	0.0236204855282669	-0.1421486708371238	0.5007773575030824	0.012672323571488286	-0.11835849604897208	0.5962792986925634	0.02606566878083849	-0.13634907016480835	0.5791530607241291	0.02627597386821756	-0.1304628366646161	0.5521038515579662	0.026973390175300094	-0.11963401198324886	0.512432132203744	0.01889736082112259	-0.10073744207359858	0.6008206840874735	0.023690868183158575	-0.1121497429946875	0.584143877860458	0.024618907198337925	-0.10536572665826269	0.5608712662609484	0.026210877157125	-0.09664614180640749	0.5233886302926267	0.017416679441560223	-0.0842996880076104	0.600799266461641	0.010783549689906136	-0.08121781394424521	0.5843114669457566	0.011858900846362763	-0.07674611549574584	0.5637578726091399	0.012109542663737427	-0.07246838741589084	0.5286655021143791	0.005483856653397345	-0.06741771726720502	0.4622830810018608	-0.023011742144276925	-0.051989820119430985
9	0.33333333333333187	0.5037871529553877	-0.029225461938327646	-0.16357872223032494	0.4949056235973044	-0.02930924160482018	-0.14238647324091877	0.4700943959358709	-0.027849946218910904	-0.12364898571165872	0.4699523890155346	-0.028474949154668194	-0.07904540731973059	0.5721333984808249	0.022988514109682723	-0.16323744788301564	0.5562416858111433	0.023541407759419264	-0.15456866613259848	0.5343993568515971	0.02360512633482459	-0.14212204255163818	0.5008031226247361	0.012668553291053875	-0.11834557288450387	0.5963084898726259	0.026032281145084157	-0.13633388893898418	0.5791829147446723	0.02624313102213416	-0.13044574671361586	0.5521312169035897	0.026945126398995933	-0.11962343659028113	0.5124572789139028	0.018879119300307168	-0.10072724398768543	0.60083300420371	0.0236808282357287	-0.11213883607327071	0.5841551902947897	0.02460820090480409	-0.10535720624320224	0.5608823306724998	0.02619964260939156	-0.09663818695763507	0.5233989826308181	0.017405941456700713	-0.08429354141297407	0.6007957748200636	0.010818880973119116	-0.08123864470370712	0.5843073279468841	0.01187957372157511	-0.07676583232180373	0.5637545231890311	0.01211910671903671	-0.07248367637780812	0.5286673094842363	0.005484135016271319	-0.06740942412377343	0.462283081001861	-0.023011742144276925	-0.051989820119430985
10	0.3666666666666651	0.503786138666649	-0.029112172596959973	-0.16359811863572654	0.49491966697477996	-0.029228722798658957	-0.14239972021066222	0.4701166030754147	-0.02781070418649112	-0.12364826041630117	0.46995901156092756	-0.028466766034404012	-0.07904518039074376	0.5722062722805225	0.023003612379972727	-0.16313940002687838	0.5563074980555156	0.02355544090136874	-0.15448350819384185	0.5344551237360187	0.023620925959958905	-0.14205453875515978	0.500826400330593	0.012678014205864896	-0.1183269653759983	0.5963375828984055	0.026021982047019	-0.1362920163814224	0.5792114150495151	0.026230033449540113	-0.13040549878393365	0.5521570852031936	0.026939780436282867	-0.11959027591146137	0.5124761679991474	0.01888218907658623	-0.10070515075101355	0.6008394842459379	0.023696063365204245	-0.11209865556170778	0.5841602380385407	0.024623358079823854	-0.10532053853223228	0.5608859977469749	0.026215684107351533	-0.09660536695202107	0.5233992041693357	0.017425414696758956	-0.08426874241543586	0.6007788715229936	0.01090083492980598	-0.08125167671681649	0.5842917027409896	0.011952945927442005	-0.07677213120389137	0.5637410145887993	0.012177653639825814	-0.07247902720847932	0.5286645231310838	0.005509958314073304	-0.06737363426965998	0.4622830810018609	-0.023011742144276925	-0.051989820119430985
11	0.39999999999999825	0.5037865711560168	-0.028983828334475548	-0.1636163988619943	0.49493665493782735	-0.02913345893194641	-0.1424112911373132	0.4701417845884498	-0.027764531376511248	-0.1236453527993156	0.4699733198497258	-0.028458021604653272	-0.07904287875431132	0.5723111086511872	0.023023632113916448	-0.16299750703124438	0.5563992435599348	0.02357509752548448	-0.15436568015522178	0.5345340403045235	0.023637436230497855	-0.14195927723231905	0.5008565951762598	0.012689473266721318	-0.11830324437436557	0.596372367259168	0.02601251152179951	-0.1362452720351382	0.5792453558270623	0.026226171325454906	-0.13036141030215823	0.5521874376127768	0.026937494222418867	-0.11955527169277075	0.5125010802396225	0.018879568730396867	-0.10068172416679394	0.600848669731244	0.023715187799935977	-0.11206210220724133	0.5841674468739207	0.024643695417399747	-0.10528901741605234	0.5608918861686908	0.02623211022721006	-0.09657665888066519	0.5234039139779256	0.017433729220967753	-0.08424940181782231	0.6007501388847751	0.011001141203717202	-0.08127653826475739	0.5842667812236693	0.01205483389081441	-0.07678335988668056	0.5637192120269157	0.012267865598711958	-0.07247475958077443	0.5286577907199518	0.0055437998939772415	-0.06733986646270573	0.4622830810018608	-0.023011742144276925	-0.051989820119430985
12	0.43333333333333146	0.5037856969000372	-0.02886248984981843	-0.16363702181424006	0.494946179346746	-0.029044924885082257	-0.14242783402019737	0.47016187113511787	-0.027722555233508306	-0.12364461265176263	0.4699767278150504	-0.028453577569886312	-0.0790428040752626	0.572390306676298	0.023062117399545556	-0.1628739750429617	0.5564682283154743	0.02360855216928681	-0.15426068126449322	0.5345898973800672	0.023665731470417173	-0.1418774184065733	0.5008707002445534	0.01270243352095568	-0.11828805774105944	0.5964055716091798	0.026001489691704238	-0.136190500008816	0.5792773590820535	0.02621779054212703	-0.1303102321945324	0.5522150512191052	0.026937341093749012	-0.11951563678133298	0.5125197989666546	0.018883426630727396	-0.10065909066501952	0.6008620964090623	0.02373689498172371	-0.11200683710106443	0.5841782256493868	0.024663464115927902	-0.10524001169220473	0.5609004206837479	0.026250059600152587	-0.09653331945283436	0.5234069161374074	0.01744851944592629	-0.08422515786195928	0.6007353096585094	0.01107502378432812	-0.0812689111222698	0.5842540321415296	0.012128180600752159	-0.076767983203683	0.5637081349857027	0.012334387098054456	-0.07245108524998356	0.5286577721339163	0.0055653163194935296	-0.06729985280007916	0.4622830810018609	-0.023011742144276925	-0.051989820119430985
13	0.4666666666666647	0.5037832052637122	-0.0287568995614087	-0.16365154525889813	0.49495064538716227	-0.02896439328942446	-0.14243968931982492	0.47017518247270174	-0.027686672505522036	-0.1236417142434349	0.4699886183284694	-0.028448562232228802	-0.07904042818726348	0.5724693370895931	0.023098405552839263	-0.16275164430972278	0.5565366606133733	0.023639811887938955	-0.1541576522522196	0.5346474140885819	0.023689314924596472	-0.14179366143103783	0.5008848764923383	0.012735793817303942	-0.11826182078024439	0.5964494297367383	0.025982517263282823	-0.1361093313521093	0.5793196946049176	0.02620677003366112	-0.13023379860957024	0.5522529136989709	0.026937373414549604	-0.11945116720117482	0.5125421453032408	0.018903413067138053	-0.10061879412827437	0.6008855224635148	0.023750685547532346	-0.11192460516474195	0.5841986216894233	0.024678499520347175	-0.1051654259403487	0.5609191130583407	0.026266201251946453	-0.09646349166647394	0.5234159391577731	0.017470091657851627	-0.08418093340719995	0.6007344098085021	0.011136162043661746	-0.08121605083924527	0.5842527199972843	0.012182935801838712	-0.07671514363447046	0.5637073207877291	0.012382849053219513	-0.07239558057648315	0.5286622267775376	0.005580087049285143	-0.06725289004188278	0.462283081001861	-0.023011742144276925	-0.051989820119430985
14	0.4999999999999978	0.5038123993616203	-0.028687779926967805	-0.1636563914190805	0.49498097663493734	-0.02892142916197782	-0.14244433398332934	0.4702085386978456	-0.027680142803801155	-0.12363993218933605	0.4699936135782907	-0.028449107300179022	-0.07903889519694879	0.5725602427262728	0.02308172411883258	-0.16264694289107734	0.5566157634687496	0.023621144224856616	-0.1540747432226358	0.5347169326951681	0.023673987506623306	-0.1417277496072808	0.5009163164124254	0.012735871589868775	-0.11824345585382856	0.5965023361371883	0.025936636638815957	-0.13602988052466924	0.5793695331567186	0.02617180548320741	-0.13016372695976536	0.5522968105475097	0.026918439485078438	-0.1193971221935412	0.5125703918564394	0.018903134471257577	-0.10058982402189515	0.6009212434360948	0.02374802595009684	-0.11184636686360411	0.5842300827230114	0.024676758105220853	-0.10509784031078831	0.5609461429366795	0.026262800525114427	-0.0964074665289088	0.5234347701438078	0.017465686952888304	-0.08415069134162723	0.6007410950554752	0.011198560168711014	-0.08114862845107756	0.584256884127024	0.012229910928819088	-0.07665339701365936	0.5637096576123957	0.012421546853823351	-0.07234215853396497	0.5286687974577449	0.005584297189676346	-0.06721638174870254	0.4622830810018609	-0.023011742144276925	-0.051989820119430985
